<svg id="bootstrap-fill" xmlns="http://www.w3.org/2000/svg" width="87.63" height="87.63" viewBox="0 0 87.63 87.63">
  <path id="Path_2" data-name="Path 2" d="M21.913,0A21.908,21.908,0,0,0,0,21.908V65.723A21.908,21.908,0,0,0,21.913,87.63H65.728A21.908,21.908,0,0,0,87.635,65.723V21.908A21.908,21.908,0,0,0,65.728,0H21.913Zm5.806,65.723H46.751c9.88,0,15.817-4.973,15.817-13.123,0-6.037-4.167-10.494-10.428-11.139v-.548a10.13,10.13,0,0,0,8.116-9.946c0-7.12-5.231-11.555-13.923-11.555H27.716v46.31Zm7.191-26.7V25.513h9.749c5.328,0,8.447,2.5,8.447,6.774,0,4.391-3.308,6.738-9.661,6.738H34.909Zm0,20.6H45.3c6.485,0,9.912-2.629,9.912-7.541,0-4.846-3.561-7.383-10.331-7.383H34.909Z" transform="translate(-0.005)" fill="#363636" fill-rule="evenodd"/>
</svg>
