<svg xmlns="http://www.w3.org/2000/svg" width="84.859" height="81.523" viewBox="0 0 84.859 81.523">
  <path id="css" d="M0,.708V66.269L42.43,82.232l42.43-15.963V.708H0ZM20.319,26.734c6.056.094,10.268,3.14,10.308,9.2h-6.57a3.887,3.887,0,0,0-2.145-3.772,4.224,4.224,0,0,0-4.745,1.094c-1.129,1.688-.926,3.574-.926,5.563-.061,2.649,1.294,4.938,3.984,4.957,2.725-.137,4.019-1.466,4.045-3.92h6.355c-.153,6.508-4.554,9.033-10.308,9.059-7.265.045-11.051-5.073-11.109-11.1C9.165,30.555,14.3,26.793,20.317,26.734Zm22.98,0c4.361-.047,9.349,1.853,9.474,6.614v.363H46.324v-.12c-.04-1.563-1.459-2.169-2.765-2.176-.948.024-2.814.229-2.843,1.4.238,1.85,4.835,2.187,6.261,2.539,3.317.7,6.291,2.586,6.386,6.082-.108,5.657-4.7,7.461-9.436,7.479-5.629-.04-10.539-1.393-10.581-7.63h6.506c-.061,2.23,1.681,2.7,3.449,2.7,1.061,0,3.01-.038,3.024-1.428C46.109,40.844,41.357,40.4,40,40.052c-3.508-.879-6.284-2.706-6.308-6.459.243-5.459,5.143-6.841,9.608-6.857Zm22.5,0c4.674.04,9.469,1.808,9.469,6.977H68.825c.057-1.626-1.44-2.289-2.765-2.294-.948.024-2.814.229-2.843,1.4.2,1.827,4.851,2.192,6.261,2.539,2.31.559,4.67,1.492,5.792,3.574a5.366,5.366,0,0,1,.592,2.506c-.1,5.66-4.7,7.461-9.436,7.479-5.627-.038-10.539-1.4-10.581-7.63H62.35a2.366,2.366,0,0,0,2.025,2.609c1.176.111,4.432.5,4.455-1.337-.257-1.742-4.943-2.154-6.324-2.506-3.512-.879-6.284-2.7-6.308-6.459.243-5.464,5.136-6.841,9.608-6.857Z" transform="translate(0 -0.708)" fill="#363636"/>
</svg>
