<svg xmlns="http://www.w3.org/2000/svg" width="25.958" height="25.958" viewBox="0 0 25.958 25.958">
  <path id="facebook-square" d="M21.09,0A4.69,4.69,0,0,1,24.53,1.428a4.684,4.684,0,0,1,1.428,3.439V21.09a4.874,4.874,0,0,1-4.867,4.867H17.914V15.9h3.363l.507-3.921h-3.87V9.48a2.165,2.165,0,0,1,.4-1.42,1.972,1.972,0,0,1,1.547-.473l2.061-.017v-3.5a22.652,22.652,0,0,0-3.008-.152,5.02,5.02,0,0,0-3.676,1.352,5.11,5.11,0,0,0-1.377,3.819v2.89h-3.38V15.9h3.38V25.958H4.867A4.69,4.69,0,0,1,1.428,24.53,4.684,4.684,0,0,1,0,21.09V4.867A4.69,4.69,0,0,1,1.428,1.428,4.684,4.684,0,0,1,4.867,0Z" fill="#3a343b"/>
</svg>
