<svg xmlns="http://www.w3.org/2000/svg" width="25.958" height="25.323" viewBox="0 0 25.958 25.323">
  <path id="github" d="M12.979,0a12.7,12.7,0,0,1,6.515,1.741,12.919,12.919,0,0,1,4.724,4.724,12.7,12.7,0,0,1,1.741,6.515,12.614,12.614,0,0,1-2.476,7.63,12.716,12.716,0,0,1-6.4,4.69.758.758,0,0,1-.676-.118.661.661,0,0,1-.22-.507q0-.05.009-1.293t.009-2.273a3.01,3.01,0,0,0-.879-2.4,11.6,11.6,0,0,0,1.732-.3,6.9,6.9,0,0,0,1.588-.659,4.717,4.717,0,0,0,1.369-1.124,5.243,5.243,0,0,0,.9-1.774,8.524,8.524,0,0,0,.348-2.543,5.005,5.005,0,0,0-1.335-3.481,4.5,4.5,0,0,0-.136-3.447,2.212,2.212,0,0,0-1.369.186,9.129,9.129,0,0,0-1.555.743l-.642.406a12.207,12.207,0,0,0-6.489,0q-.27-.186-.718-.456A10.165,10.165,0,0,0,7.6,5.6a2.325,2.325,0,0,0-1.436-.229,4.5,4.5,0,0,0-.136,3.447A5.005,5.005,0,0,0,4.7,12.3a8.447,8.447,0,0,0,.346,2.535,5.414,5.414,0,0,0,.888,1.774,4.58,4.58,0,0,0,1.361,1.132,6.864,6.864,0,0,0,1.588.659,11.648,11.648,0,0,0,1.732.3,2.854,2.854,0,0,0-.828,1.741,3.377,3.377,0,0,1-.761.254,4.724,4.724,0,0,1-.963.084,2,2,0,0,1-1.107-.363,2.971,2.971,0,0,1-.938-1.056,2.724,2.724,0,0,0-.82-.879,2.474,2.474,0,0,0-.836-.406l-.338-.05a1.1,1.1,0,0,0-.49.076q-.136.076-.084.195a.931.931,0,0,0,.152.237,1.243,1.243,0,0,0,.22.2l.118.084a2.036,2.036,0,0,1,.735.642,4.237,4.237,0,0,1,.532.862l.169.389a2.141,2.141,0,0,0,.743,1.039,2.635,2.635,0,0,0,1.132.507,7.147,7.147,0,0,0,1.175.118,5.035,5.035,0,0,0,.938-.059l.389-.068q0,.642.009,1.5t.009.921a.661.661,0,0,1-.22.507.758.758,0,0,1-.676.118,12.712,12.712,0,0,1-6.4-4.69A12.613,12.613,0,0,1,0,12.979,12.7,12.7,0,0,1,1.741,6.464,12.919,12.919,0,0,1,6.464,1.741,12.7,12.7,0,0,1,12.979,0ZM4.918,18.64q.05-.118-.118-.2-.169-.05-.22.034-.05.118.118.2Q4.85,18.776,4.918,18.64Zm.524.575q.118-.084-.034-.27-.169-.152-.27-.05-.118.084.034.27Q5.34,19.333,5.442,19.215Zm.507.761q.152-.118,0-.321-.136-.22-.287-.1-.152.084,0,.3T5.949,19.976Zm.71.71q.136-.136-.068-.321-.2-.2-.338-.05-.152.136.068.321Q6.523,20.837,6.658,20.685Zm.963.423q.05-.186-.22-.27-.254-.068-.321.118t.22.254q.254.1.321-.1Zm1.065.084q0-.22-.287-.186-.27,0-.27.186,0,.22.287.186Q8.686,21.378,8.686,21.192Zm.98-.169q-.034-.186-.3-.152-.27.05-.237.254t.3.136q.27-.068.237-.236Z" fill="#3a343b"/>
</svg>
