<svg xmlns="http://www.w3.org/2000/svg" width="25.433" height="25.958" viewBox="0 0 25.433 25.958">
  <path id="google" d="M12.979,11.12H25.231a12.287,12.287,0,0,1,.2,2.163A13.689,13.689,0,0,1,23.9,19.832a11.105,11.105,0,0,1-4.385,4.5,12.958,12.958,0,0,1-6.532,1.622,12.758,12.758,0,0,1-5.053-1.022,12.721,12.721,0,0,1-6.9-6.9,13,13,0,0,1,0-10.106,12.721,12.721,0,0,1,6.9-6.9A12.758,12.758,0,0,1,12.979,0a12.3,12.3,0,0,1,8.7,3.4l-3.532,3.4a7.145,7.145,0,0,0-5.171-2.011,7.758,7.758,0,0,0-4.031,1.1,8.209,8.209,0,0,0-4.013,7.1,8.209,8.209,0,0,0,4.013,7.1,7.753,7.753,0,0,0,4.031,1.1,8.608,8.608,0,0,0,2.7-.406,6.838,6.838,0,0,0,2.028-1.014A7.3,7.3,0,0,0,19.1,18.369a6.486,6.486,0,0,0,.87-1.47,6.168,6.168,0,0,0,.38-1.318H12.979Z"/>
</svg>
