<svg xmlns="http://www.w3.org/2000/svg" width="46" height="74" viewBox="0 0 46 74">
  <g id="Group_1" data-name="Group 1" transform="translate(-779 -715)">
    <g id="Path_3" data-name="Path 3" transform="translate(779 715)" fill="#fff">
      <path d="M 23 72.5 C 20.09685516357422 72.5 17.2813549041748 71.93175506591797 14.63168907165527 70.81104278564453 C 12.0716667175293 69.72824096679688 9.772211074829102 68.17780303955078 7.797211170196533 66.20279693603516 C 5.822199821472168 64.22779083251953 4.271766662597656 61.9283332824707 3.188966751098633 59.36831283569336 C 2.068244457244873 56.71865463256836 1.5 53.90314483642578 1.5 51 L 1.5 23 C 1.5 20.09685516357422 2.068244457244873 17.2813549041748 3.188966751098633 14.63168907165527 C 4.271766662597656 12.0716667175293 5.822199821472168 9.772211074829102 7.797211170196533 7.797211170196533 C 9.772211074829102 5.822199821472168 12.0716667175293 4.271766662597656 14.63168907165527 3.188966751098633 C 17.2813549041748 2.068244457244873 20.09685516357422 1.5 23 1.5 C 25.90314483642578 1.5 28.7186450958252 2.068244457244873 31.36831092834473 3.188966751098633 C 33.9283332824707 4.271766662597656 36.22778701782227 5.822199821472168 38.20278930664063 7.797211170196533 C 40.17779922485352 9.772211074829102 41.72823333740234 12.0716667175293 42.81103515625 14.63168907165527 C 43.93175506591797 17.2813549041748 44.5 20.09685516357422 44.5 23 L 44.5 51 C 44.5 53.90314483642578 43.93175506591797 56.71865463256836 42.81103515625 59.36831283569336 C 41.72823333740234 61.9283332824707 40.17779922485352 64.22779083251953 38.20278930664063 66.20279693603516 C 36.22778701782227 68.17780303955078 33.9283332824707 69.72824096679688 31.36831092834473 70.81104278564453 C 28.7186450958252 71.93175506591797 25.90314483642578 72.5 23 72.5 Z" stroke="none"/>
      <path d="M 23 3 C 17.65780067443848 3 12.63536071777344 5.080360412597656 8.857864379882813 8.857864379882813 C 5.080364227294922 12.63536071777344 3 17.65779876708984 3 23 L 3 51 C 3 56.34220123291016 5.080364227294922 61.36463928222656 8.857864379882813 65.14213562011719 C 12.63536071777344 68.91963958740234 17.65780067443848 71 23 71 C 28.34219932556152 71 33.36463928222656 68.91963958740234 37.14213562011719 65.14213562011719 C 40.91963958740234 61.36463928222656 43 56.34220123291016 43 51 L 43 23 C 43 17.65779876708984 40.91963958740234 12.63536071777344 37.14213562011719 8.857864379882813 C 33.36463928222656 5.080360412597656 28.34219932556152 3 23 3 M 23 0 C 35.70254898071289 0 46 10.29745101928711 46 23 L 46 51 C 46 63.70254898071289 35.70254898071289 74 23 74 C 10.29745101928711 74 0 63.70254898071289 0 51 L 0 23 C 0 10.29745101928711 10.29745101928711 0 23 0 Z" stroke="none" fill="#4d4d4d"/>
    </g>
    <circle id="Ellipse_1" data-name="Ellipse 1" cx="14" cy="14" r="14" transform="translate(788 724)" fill="#232323"/>
  </g>
</svg>
