<svg xmlns="http://www.w3.org/2000/svg" width="76.876" height="76.876" viewBox="0 0 76.876 76.876">
  <path id="illustrator" d="M67.279,76.874H9.623a9.264,9.264,0,0,1-6.8-2.815,9.241,9.241,0,0,1-2.813-6.8V9.61a9.264,9.264,0,0,1,2.815-6.8A9.248,9.248,0,0,1,9.625,0H67.281a9.264,9.264,0,0,1,6.8,2.815,9.248,9.248,0,0,1,2.815,6.8V67.266a9.611,9.611,0,0,1-9.61,9.61ZM38.451,28.828a9.611,9.611,0,0,0-9.61-9.61H24.036a9.611,9.611,0,0,0-9.61,9.61V55.254a2.388,2.388,0,0,0,4.091,1.689,2.313,2.313,0,0,0,.714-1.689V44.442a1.156,1.156,0,0,1,1.2-1.2H32.445a1.156,1.156,0,0,1,1.2,1.2V55.254a2.4,2.4,0,0,0,4.805,0V28.828Zm21.621-4.805a2.4,2.4,0,0,0,0-4.805h-9.61a2.4,2.4,0,0,0,0,4.805h2.4V52.851h-2.4a2.4,2.4,0,0,0,0,4.805h9.61a2.4,2.4,0,0,0,0-4.805h-2.4V24.023h2.4ZM32.445,38.436H20.432a1.156,1.156,0,0,1-1.2-1.2V28.828a4.676,4.676,0,0,1,1.389-3.377,4.583,4.583,0,0,1,3.416-1.426h4.805a4.869,4.869,0,0,1,4.8,4.8v8.409a1.156,1.156,0,0,1-1.2,1.2Z" transform="translate(-0.015)" fill="#363636"/>
</svg>
