<svg xmlns="http://www.w3.org/2000/svg" width="25.96" height="25.96" viewBox="0 0 25.96 25.96">
  <path id="linkedin-rect" d="M5.094.009A5.1,5.1,0,0,0,.007,5.1V20.883a5.1,5.1,0,0,0,5.088,5.086H20.881a5.1,5.1,0,0,0,5.086-5.086V5.1A5.1,5.1,0,0,0,20.881.009Zm1.28,4.284a2.044,2.044,0,1,1-.026,4.075H6.322a2.043,2.043,0,1,1,.051-4.075ZM17.933,9.7c2.58,0,4.513,1.686,4.513,5.31v6.764h-3.92v-6.31c0-1.586-.567-2.668-1.986-2.668a2.147,2.147,0,0,0-2.012,1.433,2.677,2.677,0,0,0-.129.957v6.588H10.478s.051-10.69,0-11.8H14.4v1.671A3.892,3.892,0,0,1,17.932,9.7ZM4.388,9.981h3.92v11.8H4.388V9.981Z" transform="translate(-0.007 -0.009)" fill="#3a343b"/>
</svg>
