<svg xmlns="http://www.w3.org/2000/svg" width="32.127" height="48.191" viewBox="0 0 32.127 48.191">
  <path id="location" d="M25.064,47.336c1.169,0,3.961-3.177,6.456-8.867,2.531-5.767,4.253-12.888,4.253-16.961,0-6.5-4.866-11.653-10.709-11.653S14.355,15.006,14.355,21.508c0,4.069,1.722,11.193,4.253,16.96C21.1,44.158,23.895,47.336,25.064,47.336Zm0,5.355C16.191,52.691,9,30.9,9,21.508S16.191,4.5,25.064,4.5s16.064,7.614,16.064,17.008S33.936,52.691,25.064,52.691Zm0-26.773a5.355,5.355,0,1,0-5.355-5.355A5.355,5.355,0,0,0,25.064,25.918Z" transform="translate(-9 -4.5)" fill="#3a343b"/>
</svg>
