<svg xmlns="http://www.w3.org/2000/svg" width="87.626" height="60.25" viewBox="0 0 87.626 60.25">
  <path id="logo-sass-outline" d="M87.594,48.084a7.923,7.923,0,0,0-3.082-5.268.613.613,0,0,0-.073-.075l-.09-.066-.029-.019-.954-.684-.032-.024-.122-.085a.6.6,0,0,0-.141-.061c-3.016-1.8-8.008-3.052-15.647-.358-1.823-3.067-2.03-5.526-.811-9.291a.983.983,0,0,0-.635-1.37,7.281,7.281,0,0,0-4.367.063,1.312,1.312,0,0,0-1.061,1c-.8,3.766-3.143,7.205-5.4,10.525l-.134.195c-1.392-2.955-1.105-5.243-.134-8.108a.9.9,0,0,0-.494-1.237c-1.5-.772-3.739-.241-4.632.022-1.132.331-2.349,3.393-3.7,7.059-.343.923-.638,1.711-.813,2.079-.419.857-.82,1.83-1.244,2.867-.959,2.344-2.037,4.98-3.583,6.638-.562-1.241.321-3.2,1.178-5.095,1.015-2.244,1.974-4.364.869-5.718a2.023,2.023,0,0,0-1.426-.74,2.269,2.269,0,0,0-1.052.17,5.982,5.982,0,0,0-.163-2.653,2.752,2.752,0,0,0-2.9-2.015c-3.289.095-6.073,2.546-7.831,4.586-1.171,1.37-3.766,2.412-6.044,3.33-.9.382-1.755.723-2.471,1.066a49.194,49.194,0,0,0-4.109-2.958c-4.279-2.872-9.128-6.129-9.3-10.545-.239-6.524,7.188-11.149,13.673-14.449A58.67,58.67,0,0,1,33.9,11.8c5.443-1.271,10.041-1.015,13.661.759a4.405,4.405,0,0,1,2.32,5.251c-1.541,5.64-7.923,9.5-13.381,11.243A23.856,23.856,0,0,1,27.942,30.4,14.663,14.663,0,0,1,21.234,28a3.625,3.625,0,0,0-.548-.309l-.049-.012a.55.55,0,0,0-.545.17.957.957,0,0,0-.063.9,8.187,8.187,0,0,0,6.46,5.163,15.761,15.761,0,0,0,3.213.307c7.568,0,17.222-4.362,20.768-7.955a15.9,15.9,0,0,0,4.91-9.3c.762-4.545-2.32-7.7-5.457-9.157-7.629-3.52-16.292-2.13-22.217-.343A59.5,59.5,0,0,0,8.033,17.888C1.166,23.48-1.314,28.672.653,33.336,2.673,38.116,7.6,41.106,12.371,44c1.541.932,3.006,1.821,4.326,2.738-.4.192-.8.389-1.215.587-4,1.94-8.542,4.121-11.058,7.728C2.6,57.677,2.252,60.294,3.406,62.826a4.935,4.935,0,0,0,3.233,2.717,8.558,8.558,0,0,0,2.434.331,16.75,16.75,0,0,0,8-2.305,13.2,13.2,0,0,0,6.039-7.855,12.378,12.378,0,0,0-.538-8.31l3.844-1.938c-1.852,6.161-.433,9.841,1.127,11.871a3.889,3.889,0,0,0,5.6.061A23.024,23.024,0,0,0,35.9,52.682a7.715,7.715,0,0,0,.377,3.1,2.523,2.523,0,0,0,1.577,1.6,2.9,2.9,0,0,0,2.463-.538c3.795-2.6,6.39-8.829,8.473-13.838.3-.711.579-1.4.857-2.037a26.1,26.1,0,0,0,2.14,5.319.57.57,0,0,1-.09.828c-.411.453-.988,1-1.6,1.577-1.845,1.75-4.143,3.936-4.45,5.859a1.454,1.454,0,0,0,1.234,1.631,10.989,10.989,0,0,0,7.982-1.925,5.65,5.65,0,0,0,2.568-6.365c-.57-2.578.73-5.779,3.865-9.52a17.867,17.867,0,0,0,2.142,5.4l-.027.019c-2.283,1.994-5.411,4.725-4.927,8.035a2.286,2.286,0,0,0,.954,1.577,2.434,2.434,0,0,0,1.916.353,11.635,11.635,0,0,0,6.877-3.863c1.636-1.969,1.039-4.153.487-5.849a19.409,19.409,0,0,1,11.655.085,7.221,7.221,0,0,1,4.267,3.362c1.042,1.952.48,3.756-1.59,5.075-.635.407-.942.655-.959.966a.453.453,0,0,0,.17.382c.239.2.979.538,2.651-.514a5.412,5.412,0,0,0,2.675-3.936,6.675,6.675,0,0,0,0-1.37ZM19.179,52.373l-.017.219a9.542,9.542,0,0,1-3.79,6.5,8.51,8.51,0,0,1-4.321,1.974,2.778,2.778,0,0,1-2.069-.389,1.635,1.635,0,0,1-.514-1.2c-.28-4.362,6.558-8.695,10.409-10.121a8.8,8.8,0,0,1,.3,3.011ZM36.7,40.073c-.633,3.61-2.48,10.423-5.382,13.067-.139.127-.256.17-.309.158s-.095-.075-.136-.17c-.969-2.244-.611-6.039.857-9.019,1.127-2.3,2.738-3.819,4.54-4.279a.905.905,0,0,1,.229-.032.27.27,0,0,1,.17.046.28.28,0,0,1,.032.229ZM50.984,53.233c-.545.57-1.295.492-1.117.285l2.78-2.95A5.8,5.8,0,0,1,50.984,53.233Zm11.531-2.551a2.407,2.407,0,0,1-.845.239c-.078-1.553,1.426-3.3,2.909-4.464a3.825,3.825,0,0,1-2.067,4.228Z" transform="translate(0 -5.623)" fill="#363636"/>
</svg>
