<svg xmlns="http://www.w3.org/2000/svg" width="74.252" height="74.251" viewBox="0 0 74.252 74.251">
  <path id="logo-javascript-outline" d="M2.25,2.25V76.5H76.5V2.25ZM42.028,59.928c0,7.227-4.269,10.751-10.449,10.751-5.582,0-8.823-2.89-10.466-6.379l5.681-3.439c1.1,1.945,1.928,3.588,4.318,3.588,1.989,0,3.623-.9,3.623-4.384V36.724h7.293ZM58.5,70.514c-6.48,0-10.666-2.923-12.71-6.961l5.69-3.3c1.492,2.442,3.439,4.071,6.878,4.071,2.89,0,4.571-1.28,4.571-3.274,0-2.393-1.728-3.239-4.919-4.641l-1.744-.75c-5.035-2.14-8.373-4.832-8.373-10.515,0-5.233,3.986-9.054,10.216-9.054,4.436,0,7.623,1.379,9.919,5.417l-5.443,3.5c-1.2-2.143-2.487-2.984-4.486-2.984a3.036,3.036,0,0,0-3.34,2.984c0,2.093,1.3,2.939,4.285,4.236l1.744.747c5.931,2.543,9.271,5.139,9.271,10.966,0,6.282-4.934,9.554-11.562,9.554Z" transform="translate(-2.25 -2.25)" fill="#363636"/>
</svg>
