<svg id="phone" xmlns="http://www.w3.org/2000/svg" width="30.473" height="48.758" viewBox="0 0 30.473 48.758">
  <path id="Path_5" data-name="Path 5" d="M31.129,3.047H12.845A3.047,3.047,0,0,0,9.8,6.095V42.663a3.047,3.047,0,0,0,3.047,3.047H31.129a3.047,3.047,0,0,0,3.047-3.047V6.095A3.047,3.047,0,0,0,31.129,3.047ZM12.845,0A6.1,6.1,0,0,0,6.75,6.095V42.663a6.1,6.1,0,0,0,6.095,6.095H31.129a6.1,6.1,0,0,0,6.095-6.095V6.095A6.1,6.1,0,0,0,31.129,0Z" transform="translate(-6.75 0)" fill="#3a343b" fill-rule="evenodd"/>
  <path id="Path_6" data-name="Path 6" d="M18.8,33.095a3.047,3.047,0,1,0-3.047-3.047A3.047,3.047,0,0,0,18.8,33.095Z" transform="translate(-3.561 9.568)" fill="#3a343b" fill-rule="evenodd"/>
</svg>
