<svg xmlns="http://www.w3.org/2000/svg" width="76.876" height="76.876" viewBox="0 0 76.876 76.876">
  <path id="photoshop" d="M67.279,76.874H9.623a9.264,9.264,0,0,1-6.8-2.815,9.241,9.241,0,0,1-2.813-6.8V9.61a9.264,9.264,0,0,1,2.815-6.8A9.248,9.248,0,0,1,9.625,0H67.281a9.264,9.264,0,0,1,6.8,2.815,9.248,9.248,0,0,1,2.815,6.8V67.266a9.611,9.611,0,0,1-9.61,9.61ZM33.646,28.828a9.611,9.611,0,0,0-9.61-9.61H12.023a2.438,2.438,0,0,0-2.4,2.4V55.254a2.438,2.438,0,0,0,2.4,2.4,2.438,2.438,0,0,0,2.4-2.4V43.241h9.61a9.611,9.611,0,0,0,9.61-9.61V28.826Zm24.023-9.61H52.864a9.611,9.611,0,0,0-9.61,9.61v2.4a6.081,6.081,0,0,0,2.627,5.48,12.535,12.535,0,0,0,6.981,1.727h4.805q1.877,0,3.341,2.477a9.33,9.33,0,0,1,1.464,4.73v2.4a4.869,4.869,0,0,1-4.8,4.8H52.864a4.583,4.583,0,0,1-3.416-1.426,4.676,4.676,0,0,1-1.389-3.377,2.4,2.4,0,0,0-4.805,0,9.611,9.611,0,0,0,9.61,9.61h4.805a9.611,9.611,0,0,0,9.61-9.61v-2.4a13.453,13.453,0,0,0-2.89-8.107q-2.89-3.9-6.718-3.9H52.266q-1.126,0-1.689-.038a6.367,6.367,0,0,1-1.24-.224,1.526,1.526,0,0,1-.977-.714,2.893,2.893,0,0,1-.3-1.426v-2.4a4.583,4.583,0,0,1,1.426-3.416,4.676,4.676,0,0,1,3.377-1.389h4.805a4.583,4.583,0,0,1,3.416,1.426,4.676,4.676,0,0,1,1.389,3.377,2.4,2.4,0,0,0,4.805,0,9.611,9.611,0,0,0-9.61-9.61ZM24.036,38.436h-9.61V24.023h9.61a4.583,4.583,0,0,1,3.416,1.426,4.676,4.676,0,0,1,1.389,3.377v4.805a4.745,4.745,0,0,1-4.805,4.805Z" transform="translate(-0.015)" fill="#363636"/>
</svg>
