<svg xmlns="http://www.w3.org/2000/svg" width="87.635" height="77.974" viewBox="0 0 87.635 77.974">
  <path id="react" d="M43.815,33.159a7.81,7.81,0,1,0,7.81,7.81A7.81,7.81,0,0,0,43.815,33.159ZM21.937,56.5l-1.723-.438C7.368,52.82,0,47.309,0,40.953S7.368,29.086,20.213,25.839l1.723-.433.487,1.709A85.916,85.916,0,0,0,27.4,40.179l.37.779-.37.779A85.1,85.1,0,0,0,22.424,54.8l-.487,1.706ZM19.415,29.831C9.651,32.575,3.659,36.769,3.659,40.953s5.993,8.376,15.756,11.122a91.1,91.1,0,0,1,4.316-11.122,90.375,90.375,0,0,1-4.316-11.122ZM65.7,56.5l-.487-1.714a85.28,85.28,0,0,0-4.98-13.059l-.37-.779.37-.779a85.513,85.513,0,0,0,4.98-13.064L65.7,25.4l1.728.433c12.843,3.245,20.211,8.756,20.211,15.116S80.267,52.815,67.424,56.062L65.7,56.5ZM63.9,40.951A90.014,90.014,0,0,1,68.22,52.072c9.766-2.746,15.756-6.942,15.756-11.122S77.984,32.575,68.22,29.829A90.506,90.506,0,0,1,63.9,40.951ZM19.388,29.814,18.9,28.108C15.291,15.38,16.387,6.259,21.908,3.075c5.414-3.125,14.108.565,23.217,9.917l1.241,1.273-1.241,1.273A86,86,0,0,0,36.281,26.37l-.494.7-.857.073a86.379,86.379,0,0,0-13.821,2.227l-1.723.433ZM26.311,5.606a5.1,5.1,0,0,0-2.573.63c-3.629,2.091-4.272,9.367-1.772,19.181a91.727,91.727,0,0,1,11.8-1.831A90.721,90.721,0,0,1,41.262,14.3c-5.7-5.545-11.09-8.692-14.953-8.692ZM61.324,79.953h0c-5.2,0-11.886-3.917-18.819-11.039l-1.241-1.273,1.241-1.273a85.915,85.915,0,0,0,8.838-10.837l.494-.7.854-.073a86.279,86.279,0,0,0,13.829-2.222l1.723-.433.489,1.709c3.6,12.721,2.512,21.844-3.009,25.026a8.69,8.69,0,0,1-4.4,1.125ZM46.369,67.61c5.7,5.545,11.09,8.692,14.953,8.692h0a5.086,5.086,0,0,0,2.57-.63c3.629-2.091,4.274-9.369,1.772-19.184a91.35,91.35,0,0,1-11.808,1.831,90.09,90.09,0,0,1-7.49,9.291Zm21.873-37.8-1.723-.433A85.726,85.726,0,0,0,52.69,27.154l-.854-.073-.494-.7A85.49,85.49,0,0,0,42.5,15.545l-1.241-1.273L42.5,13C51.612,3.644,60.3-.046,65.723,3.075c5.521,3.184,6.616,12.3,3.009,25.031l-.489,1.709ZM53.856,23.588a91.085,91.085,0,0,1,11.808,1.83c2.5-9.815,1.86-17.088-1.772-19.181C60.285,4.153,53.5,7.347,46.366,14.3a90.728,90.728,0,0,1,7.49,9.289ZM26.311,79.953a8.69,8.69,0,0,1-4.4-1.127c-5.521-3.179-6.616-12.3-3-25.026l.482-1.709,1.723.433A86.135,86.135,0,0,0,34.93,54.747l.857.073.489.7A86.156,86.156,0,0,0,45.12,66.361l1.241,1.273L45.12,68.907c-6.93,7.12-13.612,11.039-18.806,11.039ZM21.966,56.488c-2.5,9.815-1.86,17.09,1.772,19.184,3.6,2.054,10.379-1.115,17.526-8.062a91.275,91.275,0,0,1-7.492-9.291,91.194,91.194,0,0,1-11.8-1.83Zm21.849,2.293c-3,0-6.093-.131-9.187-.387l-.857-.073-.494-.7q-2.624-3.77-4.929-7.748t-4.257-8.135l-.365-.779.365-.779q1.959-4.154,4.257-8.135c1.512-2.614,3.174-5.221,4.929-7.748l.494-.7.857-.073a108.755,108.755,0,0,1,18.378,0l.854.073.489.7a109.558,109.558,0,0,1,9.191,15.883l.37.779-.37.779A108.078,108.078,0,0,1,54.35,57.617l-.489.7-.854.073C49.915,58.649,46.821,58.781,43.815,58.781Zm-8.023-3.958a105.717,105.717,0,0,0,16.046,0,105.908,105.908,0,0,0,8.018-13.867,104.371,104.371,0,0,0-8.023-13.867,106,106,0,0,0-16.044,0,103.977,103.977,0,0,0-8.023,13.867A106.3,106.3,0,0,0,35.79,54.823Z" transform="translate(0 -1.985)" fill="#363636"/>
</svg>
