<svg xmlns="http://www.w3.org/2000/svg" width="78.213" height="82.26" viewBox="0 0 78.213 82.26">
  <path id="strapi" d="M58.118,36.17a1.33,1.33,0,0,1-.667-.183l-5.232-3.064a1.337,1.337,0,0,1-.658-1.145V25.731a1.327,1.327,0,0,1,.66-1.149l5.257-3.036a1.316,1.316,0,0,1,1.321,0l5.271,3.016a1.33,1.33,0,0,1,.667,1.152v6.1a1.327,1.327,0,0,1-.658,1.149L58.819,36a1.309,1.309,0,0,1-.7.171Zm-3.907-5.15,3.928,2.3,3.934-2.273v-4.57l-3.941-2.26-3.941,2.28ZM16.843,46.42a1.327,1.327,0,0,1-.665-2.493l4.606-2.653a1.327,1.327,0,1,1,1.323,2.289L17.5,46.225a1.316,1.316,0,0,1-.658.192Zm-1,8.024a1.321,1.321,0,0,1-.651-2.493l8.835-5.063a1.327,1.327,0,1,1,1.316,2.3l-8.858,5.081a1.316,1.316,0,0,1-.637.171Zm1.428,6.6a1.327,1.327,0,0,1-.651-2.493L27.3,52.575a1.327,1.327,0,1,1,1.3,2.308L17.938,60.859a1.3,1.3,0,0,1-.667.185ZM43.246,6.82,36.689,2.833,3.557,22.007l.064,5.479,12.534,7.231,8.186-4.682,1.789-8.707a1.343,1.343,0,0,1,.637-.884L55.6,3.838a1.341,1.341,0,0,1,1.327,0L78.448,16.295a1.309,1.309,0,0,1,.665,1.145l-.041,24.909A1.327,1.327,0,0,1,78.4,43.5L49.877,59.879A1.33,1.33,0,0,1,48.855,60L40.2,57.558,32.083,62.28V76.665l4.748,2.742L69.96,60.24v-7.7L72.6,50.813V61a1.321,1.321,0,0,1-.653,1.152L37.5,82.08a1.316,1.316,0,0,1-1.327,0l-6.082-3.5a1.321,1.321,0,0,1-.665-1.145V61.531a1.321,1.321,0,0,1,.658-1.142L39.339,55a1.321,1.321,0,0,1,1.028-.13l8.678,2.454,27.4-15.719.041-23.373L56.29,6.546,28.633,22.489l-1.8,8.664a1.327,1.327,0,0,1-.64.882l-9.345,5.376a1.33,1.33,0,0,1-1.323,0L1.675,29.439a1.327,1.327,0,0,1-.665-1.131L.9,21.271a1.321,1.321,0,0,1,.658-1.158L36.042.185a1.327,1.327,0,0,1,1.35,0l8.47,5.148Z" transform="translate(-0.9)" fill="#363636"/>
</svg>
